<?xml version="1.0" encoding="utf-8"?>
<!-- Designed by Vexels.com - 2016 All Rights Reserved - https://vexels.com/terms-and-conditions/  -->

<svg version="1.1" id="Capa_1" xmlns="http://www.w3.org/2000/svg" xmlns:xlink="http://www.w3.org/1999/xlink" x="0px" y="0px"
	 width="1200px" height="1200px" viewBox="0 0 1200 1200" enable-background="new 0 0 1200 1200" xml:space="preserve">
<g>
	<path fill="#3D241D" d="M1132.116,577.762c-25.826-82.311-79.979-156.623-164.871-204.206c0,0-3.926-5.027-11.845-13.196
		c-56.562-57.683-137.278-92.548-252.794-67.58c2.936-4.137,4.561-8.555,4.475-13.22c-0.602-32.446-46.269,16.221-46.269,16.221
		s17.424-51.66,1.81-54.673c-6.879-1.321-13.515,8.521-18.797,19.965c21.534-67.355,87.191-65.233,87.191-65.233
		c-3.571-44.33-30.879-71.461-30.879-71.461c-90.45,32.986-117.785,91.927-120.108,147.461
		c-11.999-13.805-28.726-30.525-36.362-26.517c-12.622,6.598,6.601,46.852,6.601,46.852s-39.49-36.635-41.673-16.21
		c-0.614,5.701-0.703,11.647,1.293,17.438c-138.635-20.217-261.57,93.304-261.57,93.304s-6.868,3.861-18.016,11.414
		c-35.277,23.916-113.599,85.049-154.425,179.558c-16.46,34.418-26.82,73.738-25.81,117.729
		c-0.224,11.512,0.165,23.305,1.284,35.414c19.441,211.01,164,353.216,433.378,337.993c30.106-1.709,61.751-5.333,95.002-11.1
		c0,0,14.445,4.101,38.925,8.361c27.245,4.752,66.91,9.743,112.987,9.54c86.154-0.346,194.654-18.758,286.005-90.536
		c88.002-69.153,133.938-181.872,132.303-295.079C1150.596,652.174,1144.735,614.111,1132.116,577.762z M788.889,513.499
		c10.254-10.082,19.994-16.105,28.423-15.845c6.777,0.196,14.943,6.164,23.642,15.89c30.84,38.11,68.4,128.461,74.334,172.593
		c-0.835,2.971-2.339,4.948-4.601,5.719c-24.472,8.256-184.363,8.57-210.701-9.283C716.353,634.724,755.352,550.006,788.889,513.499
		z M375.842,513.544c8.695-9.726,16.865-15.694,23.639-15.89c8.428-0.26,18.17,5.763,28.428,15.845
		c33.53,36.507,72.528,121.224,88.891,169.074c-26.337,17.853-186.228,17.539-210.685,9.283c-2.267-0.771-3.773-2.748-4.607-5.724
		C307.44,641.998,344.996,551.654,375.842,513.544z M948.698,853.844c-32.427-0.612-14.599,68.9-71.235,82.214
		c-35.996,7.195-56.182-23.265-108.511,20.299c-54.521,42.835-104.046,29.844-153.457-2.27
		c-47.509-32.744-95.436,35.868-167.05,18.726c-71.26-18.562-79.943-111.64-117.919-76.265
		c-39.931,35.668-111.464-10.233-126.641-38.411c-15.632-27.351,21.125-47.076,43.421-9.019
		c23.009,37.312,35.516-75.707,95.232-75.41c29.325-0.679,56.148,29.42,84.655,60.832c27.717,31.488,57.118,64.285,73.252,70.731
		c32.703,12.638,40.169-88.897,80.417-95.188c38.014-6.816,80.627,107.515,109.549,105.168
		c40.552-3.649,46.254-99.666,76.557-101.973c73.577-9.25,70.252,119.276,126.728,32.42c49.357-88.423,85.582-67.56,98.67-32.254
		C998.872,834.027,982.036,853.449,948.698,853.844z"/>
</g>
</svg>
